<mxfile host="app.diagrams.net" modified="2023-05-25T08:26:08.452Z" agent="Mozilla/5.0 (Windows NT 10.0; Win64; x64) AppleWebKit/537.36 (KHTML, like Gecko) Chrome/113.0.0.0 Safari/537.36 Edg/113.0.1774.50" version="21.3.3" etag="JUF8oXgjtfnvrw-nLfnD" type="github">
  <diagram name="Sayfa -1" id="M-1Dw_-TvjlwRJe2bUfE">
    <mxGraphModel>
      <root>
        <mxCell id="0" />
        <mxCell id="1" parent="0" />
      </root>
    </mxGraphModel>
  </diagram>
</mxfile>
